<svg width="112" height="37" viewBox="0 0 112 37" fill="none" xmlns="http://www.w3.org/2000/svg">
<path d="M63.0625 32.1226H61.5892L47.7869 9.0898C47.001 7.7784 45.3153 7.28691 43.949 7.97089L42.2051 8.84387L34.234 0.862707C33.646 0.274092 32.8314 -0.0395528 32.0024 0.00400194C31.1721 0.0469309 30.3953 0.442053 29.871 1.08812L18.7787 14.7574L18.7607 14.7497C17.532 14.2224 16.1007 14.5921 15.2801 15.6487L2.483 32.1226H0.9375C0.41975 32.1226 0 32.5429 0 33.0613C0 33.5797 0.41975 34 0.9375 34H63.0625C63.5802 34 64 33.5797 64 33.0613C64 32.5429 63.5802 32.1226 63.0625 32.1226ZM31.3264 2.27185C31.5192 2.03418 31.7936 1.89463 32.0991 1.87886C32.4038 1.86296 32.692 1.9736 32.9082 2.19012L40.9644 10.2564L40.5199 11.7782C40.3745 12.2758 40.6595 12.7971 41.1565 12.9426C41.2444 12.9684 41.333 12.9807 41.4201 12.9807C41.8259 12.9807 42.1999 12.7149 42.3195 12.3053L42.8051 10.6426L44.7876 9.65013C45.2829 9.40232 45.8943 9.58042 46.1791 10.0559L59.4026 32.1228H53.3929L39.9494 20.418L41.1684 16.2452C41.3137 15.7475 41.0288 15.2263 40.5317 15.0807C40.0347 14.9353 39.5141 15.2205 39.3688 15.7181L38.3919 19.0621L31.8983 13.4084C30.8033 12.4549 29.1995 12.4383 28.085 13.3683L23.8249 16.9228L20.5705 15.5263L31.3264 2.27185ZM31.595 32.1226L25.1388 18.2703L29.2855 14.8104C29.6896 14.4731 30.2711 14.4792 30.6681 14.8249L50.5355 32.1226H31.595ZM16.7601 16.8011C17.0577 16.418 17.5769 16.284 18.0221 16.4752L23.2856 18.7338L29.5259 32.1226H12.5509L16.7871 24.4877C17.0386 24.0345 16.8755 23.463 16.4229 23.2113C15.9702 22.9596 15.3995 23.1228 15.1481 23.576L10.4059 32.1226H4.85838L16.7601 16.8011Z" fill="#636E72"/>
<path d="M60.06 17.274V30H56.964V24.69H52.14V30H49.062V17.274H52.14V22.206H56.964V17.274H60.06ZM62.7873 17.13C62.7873 16.662 62.9553 16.278 63.2913 15.978C63.6273 15.666 64.0713 15.51 64.6233 15.51C65.1753 15.51 65.6193 15.666 65.9553 15.978C66.2913 16.278 66.4593 16.662 66.4593 17.13C66.4593 17.586 66.2913 17.97 65.9553 18.282C65.6193 18.582 65.1753 18.732 64.6233 18.732C64.0713 18.732 63.6273 18.582 63.2913 18.282C62.9553 17.97 62.7873 17.586 62.7873 17.13ZM66.1533 19.956V30H63.0753V19.956H66.1533ZM75.2624 30L72.2564 25.734V30H69.1784V16.68H72.2564V23.988L75.2624 19.956H78.8804L74.8304 24.978L78.9704 30H75.2624ZM80.7064 17.13C80.7064 16.662 80.8744 16.278 81.2104 15.978C81.5464 15.666 81.9904 15.51 82.5424 15.51C83.0944 15.51 83.5384 15.666 83.8744 15.978C84.2104 16.278 84.3784 16.662 84.3784 17.13C84.3784 17.586 84.2104 17.97 83.8744 18.282C83.5384 18.582 83.0944 18.732 82.5424 18.732C81.9904 18.732 81.5464 18.582 81.2104 18.282C80.8744 17.97 80.7064 17.586 80.7064 17.13ZM84.0724 19.956V30H80.9944V19.956H84.0724ZM93.4695 19.848C94.6215 19.848 95.5335 20.232 96.2055 21C96.8895 21.768 97.2315 22.824 97.2315 24.168V30H94.1535V24.528C94.1535 23.856 93.9735 23.334 93.6135 22.962C93.2655 22.578 92.7975 22.386 92.2095 22.386C91.5855 22.386 91.0875 22.584 90.7155 22.98C90.3555 23.376 90.1755 23.94 90.1755 24.672V30H87.0975V19.956H90.1755V21.792C90.4635 21.192 90.8895 20.718 91.4535 20.37C92.0295 20.022 92.7015 19.848 93.4695 19.848ZM103.978 19.83C104.746 19.83 105.406 20.004 105.958 20.352C106.51 20.7 106.918 21.174 107.182 21.774V19.956H110.242V29.946C110.242 30.882 110.062 31.722 109.702 32.466C109.342 33.222 108.79 33.822 108.046 34.266C107.302 34.71 106.378 34.932 105.274 34.932C103.762 34.932 102.55 34.572 101.638 33.852C100.738 33.144 100.198 32.178 100.018 30.954H103.06C103.156 31.362 103.372 31.68 103.708 31.908C104.056 32.136 104.506 32.25 105.058 32.25C105.694 32.25 106.204 32.064 106.588 31.692C106.984 31.332 107.182 30.75 107.182 29.946V28.182C106.918 28.782 106.51 29.256 105.958 29.604C105.406 29.952 104.746 30.126 103.978 30.126C103.15 30.126 102.406 29.922 101.746 29.514C101.098 29.094 100.582 28.494 100.198 27.714C99.8256 26.934 99.6396 26.022 99.6396 24.978C99.6396 23.922 99.8256 23.01 100.198 22.242C100.582 21.462 101.098 20.868 101.746 20.46C102.406 20.04 103.15 19.83 103.978 19.83ZM104.968 22.53C104.308 22.53 103.774 22.746 103.366 23.178C102.97 23.61 102.772 24.21 102.772 24.978C102.772 25.746 102.97 26.346 103.366 26.778C103.774 27.21 104.308 27.426 104.968 27.426C105.616 27.426 106.144 27.204 106.552 26.76C106.972 26.316 107.182 25.722 107.182 24.978C107.182 24.222 106.972 23.628 106.552 23.196C106.144 22.752 105.616 22.53 104.968 22.53Z" fill="#2D3436"/>
</svg>
